<mxfile host="65bd71144e">
    <diagram id="SDT9VQ0xGznliwvfmArW" name="Page-1">
        <mxGraphModel dx="1038" dy="958" grid="1" gridSize="10" guides="1" tooltips="1" connect="1" arrows="1" fold="1" page="1" pageScale="1" pageWidth="850" pageHeight="1100" math="0" shadow="0">
            <root>
                <mxCell id="0"/>
                <mxCell id="1" parent="0"/>
                <mxCell id="16" style="edgeStyle=orthogonalEdgeStyle;html=1;exitX=0.25;exitY=1;exitDx=0;exitDy=0;entryX=0.5;entryY=0;entryDx=0;entryDy=0;endArrow=open;endFill=0;endSize=16;shadow=1;" edge="1" parent="1" source="3" target="11">
                    <mxGeometry relative="1" as="geometry"/>
                </mxCell>
                <mxCell id="22" style="edgeStyle=orthogonalEdgeStyle;html=1;exitX=0.75;exitY=1;exitDx=0;exitDy=0;entryX=0.5;entryY=0;entryDx=0;entryDy=0;endArrow=open;endFill=0;endSize=16;shadow=1;" edge="1" parent="1" source="3" target="17">
                    <mxGeometry relative="1" as="geometry"/>
                </mxCell>
                <mxCell id="3" value="" style="rounded=1;whiteSpace=wrap;html=1;arcSize=8;fillColor=#1ba1e2;strokeColor=#006EAF;fontColor=#ffffff;shadow=1;" vertex="1" parent="1">
                    <mxGeometry x="220" y="10" width="110" height="110" as="geometry"/>
                </mxCell>
                <mxCell id="4" value="&lt;span&gt;&amp;nbsp; Priority&lt;/span&gt;" style="rounded=1;whiteSpace=wrap;html=1;align=left;fillColor=#60a917;strokeColor=#2D7600;fontColor=#ffffff;shadow=1;" vertex="1" parent="1">
                    <mxGeometry x="230" y="70" width="90" height="40" as="geometry"/>
                </mxCell>
                <mxCell id="6" value="&amp;nbsp; Value" style="rounded=1;whiteSpace=wrap;html=1;align=left;fillColor=#fa6800;strokeColor=#C73500;fontColor=#000000;shadow=1;" vertex="1" parent="1">
                    <mxGeometry x="230" y="20" width="90" height="40" as="geometry"/>
                </mxCell>
                <mxCell id="9" value="3" style="rounded=1;whiteSpace=wrap;html=1;align=center;fontSize=20;shadow=0;" vertex="1" parent="1">
                    <mxGeometry x="280" y="20" width="40" height="40" as="geometry"/>
                </mxCell>
                <mxCell id="10" value="2" style="rounded=1;whiteSpace=wrap;html=1;align=center;fontSize=20;shadow=0;" vertex="1" parent="1">
                    <mxGeometry x="280" y="70" width="40" height="40" as="geometry"/>
                </mxCell>
                <mxCell id="53" style="edgeStyle=orthogonalEdgeStyle;html=1;exitX=0.75;exitY=1;exitDx=0;exitDy=0;entryX=0.5;entryY=0;entryDx=0;entryDy=0;endArrow=open;endFill=0;endSize=16;shadow=1;" edge="1" parent="1" source="11" target="23">
                    <mxGeometry relative="1" as="geometry"/>
                </mxCell>
                <mxCell id="54" style="edgeStyle=orthogonalEdgeStyle;html=1;exitX=0.25;exitY=1;exitDx=0;exitDy=0;entryX=0.5;entryY=0;entryDx=0;entryDy=0;endArrow=open;endFill=0;endSize=16;shadow=1;" edge="1" parent="1" source="11" target="28">
                    <mxGeometry relative="1" as="geometry"/>
                </mxCell>
                <mxCell id="11" value="" style="rounded=1;whiteSpace=wrap;html=1;arcSize=8;fillColor=#1ba1e2;strokeColor=#006EAF;fontColor=#ffffff;shadow=1;" vertex="1" parent="1">
                    <mxGeometry x="80" y="170" width="110" height="110" as="geometry"/>
                </mxCell>
                <mxCell id="12" value="&lt;span&gt;&amp;nbsp; Priority&lt;/span&gt;" style="rounded=1;whiteSpace=wrap;html=1;align=left;fillColor=#60a917;strokeColor=#2D7600;fontColor=#ffffff;shadow=1;" vertex="1" parent="1">
                    <mxGeometry x="90" y="230" width="90" height="40" as="geometry"/>
                </mxCell>
                <mxCell id="13" value="&amp;nbsp; Value" style="rounded=1;whiteSpace=wrap;html=1;align=left;fillColor=#fa6800;strokeColor=#C73500;fontColor=#000000;shadow=1;" vertex="1" parent="1">
                    <mxGeometry x="90" y="180" width="90" height="40" as="geometry"/>
                </mxCell>
                <mxCell id="14" value="1" style="rounded=1;whiteSpace=wrap;html=1;align=center;fontSize=20;shadow=0;" vertex="1" parent="1">
                    <mxGeometry x="140" y="180" width="40" height="40" as="geometry"/>
                </mxCell>
                <mxCell id="15" value="5" style="rounded=1;whiteSpace=wrap;html=1;align=center;fontSize=20;shadow=0;" vertex="1" parent="1">
                    <mxGeometry x="140" y="230" width="40" height="40" as="geometry"/>
                </mxCell>
                <mxCell id="55" style="edgeStyle=orthogonalEdgeStyle;html=1;exitX=0.25;exitY=1;exitDx=0;exitDy=0;entryX=0.5;entryY=0;entryDx=0;entryDy=0;endArrow=open;endFill=0;endSize=16;shadow=1;" edge="1" parent="1" source="17" target="48">
                    <mxGeometry relative="1" as="geometry"/>
                </mxCell>
                <mxCell id="56" style="edgeStyle=orthogonalEdgeStyle;html=1;exitX=0.75;exitY=1;exitDx=0;exitDy=0;entryX=0.5;entryY=0;entryDx=0;entryDy=0;endArrow=open;endFill=0;endSize=16;shadow=1;" edge="1" parent="1" source="17" target="43">
                    <mxGeometry relative="1" as="geometry"/>
                </mxCell>
                <mxCell id="17" value="" style="rounded=1;whiteSpace=wrap;html=1;arcSize=8;fillColor=#1ba1e2;strokeColor=#006EAF;fontColor=#ffffff;shadow=1;" vertex="1" parent="1">
                    <mxGeometry x="360" y="170" width="110" height="110" as="geometry"/>
                </mxCell>
                <mxCell id="18" value="&lt;span&gt;&amp;nbsp; Priority&lt;/span&gt;" style="rounded=1;whiteSpace=wrap;html=1;align=left;fillColor=#60a917;strokeColor=#2D7600;fontColor=#ffffff;shadow=1;" vertex="1" parent="1">
                    <mxGeometry x="370" y="230" width="90" height="40" as="geometry"/>
                </mxCell>
                <mxCell id="19" value="&amp;nbsp; Value" style="rounded=1;whiteSpace=wrap;html=1;align=left;fillColor=#fa6800;strokeColor=#C73500;fontColor=#000000;shadow=1;" vertex="1" parent="1">
                    <mxGeometry x="370" y="180" width="90" height="40" as="geometry"/>
                </mxCell>
                <mxCell id="20" value="5" style="rounded=1;whiteSpace=wrap;html=1;align=center;fontSize=20;shadow=0;" vertex="1" parent="1">
                    <mxGeometry x="420" y="180" width="40" height="40" as="geometry"/>
                </mxCell>
                <mxCell id="21" value="3" style="rounded=1;whiteSpace=wrap;html=1;align=center;fontSize=20;shadow=0;" vertex="1" parent="1">
                    <mxGeometry x="420" y="230" width="40" height="40" as="geometry"/>
                </mxCell>
                <mxCell id="75" style="edgeStyle=orthogonalEdgeStyle;html=1;exitX=0.25;exitY=1;exitDx=0;exitDy=0;entryX=0.5;entryY=0;entryDx=0;entryDy=0;shadow=1;fontSize=20;endArrow=open;endFill=0;endSize=16;" edge="1" parent="1" source="23" target="69">
                    <mxGeometry relative="1" as="geometry"/>
                </mxCell>
                <mxCell id="76" style="edgeStyle=orthogonalEdgeStyle;html=1;exitX=0.75;exitY=1;exitDx=0;exitDy=0;entryX=0.5;entryY=0;entryDx=0;entryDy=0;shadow=1;fontSize=20;endArrow=open;endFill=0;endSize=16;" edge="1" parent="1" source="23" target="70">
                    <mxGeometry relative="1" as="geometry"/>
                </mxCell>
                <mxCell id="23" value="" style="rounded=1;whiteSpace=wrap;html=1;arcSize=8;fillColor=#1ba1e2;strokeColor=#006EAF;fontColor=#ffffff;shadow=1;" vertex="1" parent="1">
                    <mxGeometry x="150" y="340" width="110" height="110" as="geometry"/>
                </mxCell>
                <mxCell id="24" value="&lt;span&gt;&amp;nbsp; Priority&lt;/span&gt;" style="rounded=1;whiteSpace=wrap;html=1;align=left;fillColor=#60a917;strokeColor=#2D7600;fontColor=#ffffff;shadow=1;" vertex="1" parent="1">
                    <mxGeometry x="160" y="400" width="90" height="40" as="geometry"/>
                </mxCell>
                <mxCell id="25" value="&amp;nbsp; Value" style="rounded=1;whiteSpace=wrap;html=1;align=left;fillColor=#fa6800;strokeColor=#C73500;fontColor=#000000;shadow=1;" vertex="1" parent="1">
                    <mxGeometry x="160" y="350" width="90" height="40" as="geometry"/>
                </mxCell>
                <mxCell id="26" value="2" style="rounded=1;whiteSpace=wrap;html=1;align=center;fontSize=20;shadow=0;" vertex="1" parent="1">
                    <mxGeometry x="210" y="350" width="40" height="40" as="geometry"/>
                </mxCell>
                <mxCell id="27" value="7" style="rounded=1;whiteSpace=wrap;html=1;align=center;fontSize=20;shadow=0;" vertex="1" parent="1">
                    <mxGeometry x="210" y="400" width="40" height="40" as="geometry"/>
                </mxCell>
                <mxCell id="64" style="edgeStyle=orthogonalEdgeStyle;html=1;exitX=0.25;exitY=1;exitDx=0;exitDy=0;entryX=0.5;entryY=0;entryDx=0;entryDy=0;shadow=1;fontSize=20;endArrow=open;endFill=0;endSize=16;" edge="1" parent="1" source="28" target="63">
                    <mxGeometry relative="1" as="geometry"/>
                </mxCell>
                <mxCell id="66" style="edgeStyle=orthogonalEdgeStyle;html=1;exitX=0.75;exitY=1;exitDx=0;exitDy=0;entryX=0.5;entryY=0;entryDx=0;entryDy=0;shadow=1;fontSize=20;endArrow=open;endFill=0;endSize=16;" edge="1" parent="1" source="28" target="65">
                    <mxGeometry relative="1" as="geometry"/>
                </mxCell>
                <mxCell id="28" value="" style="rounded=1;whiteSpace=wrap;html=1;arcSize=8;fillColor=#1ba1e2;strokeColor=#006EAF;fontColor=#ffffff;shadow=1;" vertex="1" parent="1">
                    <mxGeometry x="10" y="340" width="110" height="110" as="geometry"/>
                </mxCell>
                <mxCell id="29" value="&lt;span&gt;&amp;nbsp; Priority&lt;/span&gt;" style="rounded=1;whiteSpace=wrap;html=1;align=left;fillColor=#60a917;strokeColor=#2D7600;fontColor=#ffffff;shadow=1;" vertex="1" parent="1">
                    <mxGeometry x="20" y="400" width="90" height="40" as="geometry"/>
                </mxCell>
                <mxCell id="30" value="&amp;nbsp; Value" style="rounded=1;whiteSpace=wrap;html=1;align=left;fillColor=#fa6800;strokeColor=#C73500;fontColor=#000000;shadow=1;" vertex="1" parent="1">
                    <mxGeometry x="20" y="350" width="90" height="40" as="geometry"/>
                </mxCell>
                <mxCell id="31" value="0" style="rounded=1;whiteSpace=wrap;html=1;align=center;fontSize=20;shadow=0;" vertex="1" parent="1">
                    <mxGeometry x="70" y="350" width="40" height="40" as="geometry"/>
                </mxCell>
                <mxCell id="32" value="6" style="rounded=1;whiteSpace=wrap;html=1;align=center;fontSize=20;shadow=0;" vertex="1" parent="1">
                    <mxGeometry x="70" y="400" width="40" height="40" as="geometry"/>
                </mxCell>
                <mxCell id="79" style="edgeStyle=orthogonalEdgeStyle;html=1;exitX=0.25;exitY=1;exitDx=0;exitDy=0;entryX=0.5;entryY=0;entryDx=0;entryDy=0;shadow=1;fontSize=20;endArrow=open;endFill=0;endSize=16;" edge="1" parent="1" source="43" target="73">
                    <mxGeometry relative="1" as="geometry"/>
                </mxCell>
                <mxCell id="80" style="edgeStyle=orthogonalEdgeStyle;html=1;exitX=0.75;exitY=1;exitDx=0;exitDy=0;shadow=1;fontSize=20;endArrow=open;endFill=0;endSize=16;entryX=0.5;entryY=0;entryDx=0;entryDy=0;" edge="1" parent="1" source="43" target="74">
                    <mxGeometry relative="1" as="geometry"/>
                </mxCell>
                <mxCell id="43" value="" style="rounded=1;whiteSpace=wrap;html=1;arcSize=8;fillColor=#1ba1e2;strokeColor=#006EAF;fontColor=#ffffff;shadow=1;" vertex="1" parent="1">
                    <mxGeometry x="430" y="340" width="110" height="110" as="geometry"/>
                </mxCell>
                <mxCell id="44" value="&lt;span&gt;&amp;nbsp; Priority&lt;/span&gt;" style="rounded=1;whiteSpace=wrap;html=1;align=left;fillColor=#60a917;strokeColor=#2D7600;fontColor=#ffffff;shadow=1;" vertex="1" parent="1">
                    <mxGeometry x="440" y="400" width="90" height="40" as="geometry"/>
                </mxCell>
                <mxCell id="45" value="&amp;nbsp; Value" style="rounded=1;whiteSpace=wrap;html=1;align=left;fillColor=#fa6800;strokeColor=#C73500;fontColor=#000000;shadow=1;" vertex="1" parent="1">
                    <mxGeometry x="440" y="350" width="90" height="40" as="geometry"/>
                </mxCell>
                <mxCell id="46" value="6" style="rounded=1;whiteSpace=wrap;html=1;align=center;fontSize=20;shadow=0;" vertex="1" parent="1">
                    <mxGeometry x="490" y="350" width="40" height="40" as="geometry"/>
                </mxCell>
                <mxCell id="47" value="5" style="rounded=1;whiteSpace=wrap;html=1;align=center;fontSize=20;shadow=0;" vertex="1" parent="1">
                    <mxGeometry x="490" y="400" width="40" height="40" as="geometry"/>
                </mxCell>
                <mxCell id="77" style="edgeStyle=orthogonalEdgeStyle;html=1;exitX=0.25;exitY=1;exitDx=0;exitDy=0;entryX=0.5;entryY=0;entryDx=0;entryDy=0;shadow=1;fontSize=20;endArrow=open;endFill=0;endSize=16;" edge="1" parent="1" source="48" target="71">
                    <mxGeometry relative="1" as="geometry"/>
                </mxCell>
                <mxCell id="78" style="edgeStyle=orthogonalEdgeStyle;html=1;exitX=0.75;exitY=1;exitDx=0;exitDy=0;entryX=0.5;entryY=0;entryDx=0;entryDy=0;shadow=1;fontSize=20;endArrow=open;endFill=0;endSize=16;" edge="1" parent="1" source="48" target="72">
                    <mxGeometry relative="1" as="geometry"/>
                </mxCell>
                <mxCell id="48" value="" style="rounded=1;whiteSpace=wrap;html=1;arcSize=8;fillColor=#1ba1e2;strokeColor=#006EAF;fontColor=#ffffff;shadow=1;" vertex="1" parent="1">
                    <mxGeometry x="290" y="340" width="110" height="110" as="geometry"/>
                </mxCell>
                <mxCell id="49" value="&lt;span&gt;&amp;nbsp; Priority&lt;/span&gt;" style="rounded=1;whiteSpace=wrap;html=1;align=left;fillColor=#60a917;strokeColor=#2D7600;fontColor=#ffffff;shadow=1;" vertex="1" parent="1">
                    <mxGeometry x="300" y="400" width="90" height="40" as="geometry"/>
                </mxCell>
                <mxCell id="50" value="&amp;nbsp; Value" style="rounded=1;whiteSpace=wrap;html=1;align=left;fillColor=#fa6800;strokeColor=#C73500;fontColor=#000000;shadow=1;" vertex="1" parent="1">
                    <mxGeometry x="300" y="350" width="90" height="40" as="geometry"/>
                </mxCell>
                <mxCell id="51" value="4" style="rounded=1;whiteSpace=wrap;html=1;align=center;fontSize=20;shadow=0;" vertex="1" parent="1">
                    <mxGeometry x="350" y="350" width="40" height="40" as="geometry"/>
                </mxCell>
                <mxCell id="52" value="4" style="rounded=1;whiteSpace=wrap;html=1;align=center;fontSize=20;shadow=0;" vertex="1" parent="1">
                    <mxGeometry x="350" y="400" width="40" height="40" as="geometry"/>
                </mxCell>
                <mxCell id="57" value="" style="endArrow=open;html=1;fontSize=20;endSize=16;endFill=0;shadow=1;" edge="1" parent="1">
                    <mxGeometry width="50" height="50" relative="1" as="geometry">
                        <mxPoint x="180" y="570" as="sourcePoint"/>
                        <mxPoint x="360" y="570" as="targetPoint"/>
                    </mxGeometry>
                </mxCell>
                <mxCell id="58" value="" style="endArrow=open;html=1;fontSize=20;endSize=16;endFill=0;" edge="1" parent="1">
                    <mxGeometry width="50" height="50" relative="1" as="geometry">
                        <mxPoint x="590" y="340" as="sourcePoint"/>
                        <mxPoint x="590" y="90" as="targetPoint"/>
                    </mxGeometry>
                </mxCell>
                <mxCell id="60" value="Values" style="text;html=1;strokeColor=none;fillColor=none;align=center;verticalAlign=middle;whiteSpace=wrap;rounded=0;fontSize=20;" vertex="1" parent="1">
                    <mxGeometry x="255" y="590" width="40" height="20" as="geometry"/>
                </mxCell>
                <mxCell id="62" value="Priority&lt;br&gt;&lt;font style=&quot;font-size: 10px&quot;&gt;(lower # is higher priority)&lt;/font&gt;" style="text;html=1;strokeColor=none;fillColor=none;align=center;verticalAlign=middle;whiteSpace=wrap;rounded=0;fontSize=20;" vertex="1" parent="1">
                    <mxGeometry x="600" y="200" width="120" height="20" as="geometry"/>
                </mxCell>
                <mxCell id="63" value="Empty" style="rounded=1;whiteSpace=wrap;html=1;shadow=1;fontSize=20;fillColor=#a20025;strokeColor=#6F0000;fontColor=#ffffff;" vertex="1" parent="1">
                    <mxGeometry y="500" width="60" height="40" as="geometry"/>
                </mxCell>
                <mxCell id="65" value="Empty" style="rounded=1;whiteSpace=wrap;html=1;shadow=1;fontSize=20;fillColor=#a20025;strokeColor=#6F0000;fontColor=#ffffff;" vertex="1" parent="1">
                    <mxGeometry x="70" y="500" width="60" height="40" as="geometry"/>
                </mxCell>
                <mxCell id="69" value="Empty" style="rounded=1;whiteSpace=wrap;html=1;shadow=1;fontSize=20;fillColor=#a20025;strokeColor=#6F0000;fontColor=#ffffff;" vertex="1" parent="1">
                    <mxGeometry x="140" y="500" width="60" height="40" as="geometry"/>
                </mxCell>
                <mxCell id="70" value="Empty" style="rounded=1;whiteSpace=wrap;html=1;shadow=1;fontSize=20;fillColor=#a20025;strokeColor=#6F0000;fontColor=#ffffff;" vertex="1" parent="1">
                    <mxGeometry x="210" y="500" width="60" height="40" as="geometry"/>
                </mxCell>
                <mxCell id="71" value="Empty" style="rounded=1;whiteSpace=wrap;html=1;shadow=1;fontSize=20;fillColor=#a20025;strokeColor=#6F0000;fontColor=#ffffff;" vertex="1" parent="1">
                    <mxGeometry x="280" y="500" width="60" height="40" as="geometry"/>
                </mxCell>
                <mxCell id="72" value="Empty" style="rounded=1;whiteSpace=wrap;html=1;shadow=1;fontSize=20;fillColor=#a20025;strokeColor=#6F0000;fontColor=#ffffff;" vertex="1" parent="1">
                    <mxGeometry x="350" y="500" width="60" height="40" as="geometry"/>
                </mxCell>
                <mxCell id="73" value="Empty" style="rounded=1;whiteSpace=wrap;html=1;shadow=1;fontSize=20;fillColor=#a20025;strokeColor=#6F0000;fontColor=#ffffff;" vertex="1" parent="1">
                    <mxGeometry x="420" y="500" width="60" height="40" as="geometry"/>
                </mxCell>
                <mxCell id="74" value="Empty" style="rounded=1;whiteSpace=wrap;html=1;shadow=1;fontSize=20;fillColor=#a20025;strokeColor=#6F0000;fontColor=#ffffff;" vertex="1" parent="1">
                    <mxGeometry x="490" y="500" width="60" height="40" as="geometry"/>
                </mxCell>
            </root>
        </mxGraphModel>
    </diagram>
</mxfile>